<?xml version="1.0" encoding="utf-8"?>
<!-- Generator: Adobe Illustrator 22.0.1, SVG Export Plug-In . SVG Version: 6.00 Build 0)  -->
<svg version="1.1" id="katman_1" xmlns="http://www.w3.org/2000/svg" xmlns:xlink="http://www.w3.org/1999/xlink" x="0px" y="0px"
	 viewBox="0 0 298.8 99.4" style="enable-background:new 0 0 298.8 99.4;" xml:space="preserve">
<style type="text/css">
	.st0{clip-path:url(#SVGID_2_);}
	.st1{clip-path:url(#SVGID_4_);}
	.st2{clip-path:url(#SVGID_6_);}
	.st3{clip-path:url(#SVGID_8_);fill:#EFEEEE;}
	.st4{clip-path:url(#SVGID_12_);fill:url(#SVGID_13_);}
	.st5{clip-path:url(#SVGID_15_);fill:url(#SVGID_16_);}
	.st6{clip-path:url(#SVGID_18_);fill:url(#SVGID_19_);}
	.st7{clip-path:url(#SVGID_21_);fill:url(#SVGID_22_);}
	.st8{clip-path:url(#SVGID_24_);fill:url(#SVGID_25_);}
	.st9{clip-path:url(#SVGID_27_);fill:url(#SVGID_28_);}
	.st10{clip-path:url(#SVGID_30_);fill:url(#SVGID_31_);}
	.st11{clip-path:url(#SVGID_33_);fill:#414142;}
	.st12{fill:#414142;}
</style>
<g>
	<defs>
		<rect id="SVGID_1_" x="-261.8" y="-248.1" width="841.9" height="595.3"/>
	</defs>
	<clipPath id="SVGID_2_">
		<use xlink:href="#SVGID_1_"  style="overflow:visible;"/>
	</clipPath>
	<g class="st0">
		<defs>
			<rect id="SVGID_3_" x="-261.8" y="-248.1" width="841.9" height="595.3"/>
		</defs>
		<clipPath id="SVGID_4_">
			<use xlink:href="#SVGID_3_"  style="overflow:visible;"/>
		</clipPath>
		<g class="st1">
			<g>
				<defs>
					<rect id="SVGID_5_" x="-558.8" y="-1303.8" width="1444.9" height="1115.5"/>
				</defs>
				<clipPath id="SVGID_6_">
					<use xlink:href="#SVGID_5_"  style="overflow:visible;"/>
				</clipPath>
				<g class="st2">
					<defs>
						<rect id="SVGID_7_" x="-262.4" y="-996.3" width="843.2" height="596.3"/>
					</defs>
					<clipPath id="SVGID_8_">
						<use xlink:href="#SVGID_7_"  style="overflow:visible;"/>
					</clipPath>
					<path class="st3" d="M-373.3-419.2c0-0.1,0-0.1,0-0.2l61.8-196.9c0.1-0.3,0.3-0.5,0.6-0.5c0.3,0,0.5,0.1,0.7,0.4l153,273.6
						c0.1,0.2,0.1,0.4,0,0.6l-71.7,153.5c-0.1,0.2-0.3,0.4-0.6,0.4c-0.3,0-0.5-0.1-0.6-0.3l-143.1-230.2
						C-373.3-418.9-373.3-419-373.3-419.2 M-310.6-614.3l-61.3,195l142.3,228.8l71-152L-310.6-614.3z"/>
				</g>
			</g>
		</g>
	</g>
	<g class="st0">
		<defs>
			<rect id="SVGID_9_" x="-261.8" y="-248.1" width="841.9" height="595.3"/>
		</defs>
		<clipPath id="SVGID_10_">
			<use xlink:href="#SVGID_9_"  style="overflow:visible;"/>
		</clipPath>
	</g>
	<g class="st0">
		<defs>
			<path id="SVGID_11_" d="M74,49.6c0,4.6,3.7,8.3,8.3,8.3c4.6,0,8.3-3.7,8.3-8.3c0-4.6-3.7-8.3-8.3-8.3C77.7,41.3,74,45,74,49.6"/>
		</defs>
		<clipPath id="SVGID_12_">
			<use xlink:href="#SVGID_11_"  style="overflow:visible;"/>
		</clipPath>
		
			<linearGradient id="SVGID_13_" gradientUnits="userSpaceOnUse" x1="-261.7358" y1="347.1684" x2="-260.9308" y2="347.1684" gradientTransform="matrix(-86.7206 -75.8428 -75.8428 86.7206 3742.655 -49883.3008)">
			<stop  offset="0" style="stop-color:#034257"/>
			<stop  offset="0.3079" style="stop-color:#136667"/>
			<stop  offset="0.5534" style="stop-color:#1D7F71"/>
			<stop  offset="0.6101" style="stop-color:#1C856E"/>
			<stop  offset="0.8494" style="stop-color:#1B9D65"/>
			<stop  offset="1" style="stop-color:#1AA562"/>
		</linearGradient>
		<polygon class="st4" points="83.4,66.1 65.7,50.7 81.2,33 98.8,48.5 		"/>
	</g>
	<g class="st0">
		<defs>
			<path id="SVGID_14_" d="M4.8,49.6c0,4.6,3.7,8.3,8.3,8.3c4.6,0,8.3-3.7,8.3-8.3c0-4.6-3.7-8.3-8.3-8.3C8.6,41.3,4.8,45,4.8,49.6"
				/>
		</defs>
		<clipPath id="SVGID_15_">
			<use xlink:href="#SVGID_14_"  style="overflow:visible;"/>
		</clipPath>
		
			<linearGradient id="SVGID_16_" gradientUnits="userSpaceOnUse" x1="-261.7358" y1="347.0727" x2="-260.9308" y2="347.0727" gradientTransform="matrix(-86.7206 -75.8428 -75.8428 86.7206 3705.4324 -49840.7383)">
			<stop  offset="0" style="stop-color:#034257"/>
			<stop  offset="0.3079" style="stop-color:#136667"/>
			<stop  offset="0.5534" style="stop-color:#1D7F71"/>
			<stop  offset="0.6101" style="stop-color:#1C856E"/>
			<stop  offset="0.8494" style="stop-color:#1B9D65"/>
			<stop  offset="1" style="stop-color:#1AA562"/>
		</linearGradient>
		<polygon class="st5" points="14.2,66.1 -3.4,50.7 12,33 29.7,48.5 		"/>
	</g>
	<g class="st0">
		<defs>
			<path id="SVGID_17_" d="M61.8,18.8l-2.4,2.4v0L31.1,49.4l0,0L17.1,63.5c-4.6,4.6-4.6,12,0,16.6c4.6,4.6,12,4.6,16.6,0l2.4-2.4v0
				l28.3-28.3l0,0l14.1-14.1c4.6-4.6,4.6-12,0-16.6c-2.3-2.3-5.3-3.4-8.3-3.4C67.1,15.4,64.1,16.5,61.8,18.8"/>
		</defs>
		<clipPath id="SVGID_18_">
			<use xlink:href="#SVGID_17_"  style="overflow:visible;"/>
		</clipPath>
		
			<linearGradient id="SVGID_19_" gradientUnits="userSpaceOnUse" x1="-261.7358" y1="347.1245" x2="-260.9308" y2="347.1245" gradientTransform="matrix(-86.7206 -75.8428 -75.8428 86.7206 3724.1375 -49862.1289)">
			<stop  offset="0" style="stop-color:#034257"/>
			<stop  offset="0.3079" style="stop-color:#136667"/>
			<stop  offset="0.5534" style="stop-color:#1D7F71"/>
			<stop  offset="0.6101" style="stop-color:#1C856E"/>
			<stop  offset="0.8494" style="stop-color:#1B9D65"/>
			<stop  offset="1" style="stop-color:#1AA562"/>
		</linearGradient>
		<polygon class="st6" points="52.4,119.6 -21.8,54.6 43,-19.5 117.3,45.4 		"/>
	</g>
	<g class="st0">
		<defs>
			<path id="SVGID_20_" d="M17.1,18.8c-4.6,4.6-4.6,12,0,16.6l12,12l16.6-16.6L36,21.1v0l-2.4-2.4c-2.3-2.3-5.3-3.4-8.3-3.4
				C22.4,15.4,19.4,16.5,17.1,18.8"/>
		</defs>
		<clipPath id="SVGID_21_">
			<use xlink:href="#SVGID_20_"  style="overflow:visible;"/>
		</clipPath>
		
			<linearGradient id="SVGID_22_" gradientUnits="userSpaceOnUse" x1="-261.7358" y1="347.126" x2="-260.9308" y2="347.126" gradientTransform="matrix(-86.7206 -75.8428 -75.8428 86.7206 3725.4099 -49863.582)">
			<stop  offset="0" style="stop-color:#034257"/>
			<stop  offset="0.3079" style="stop-color:#136667"/>
			<stop  offset="0.5534" style="stop-color:#1D7F71"/>
			<stop  offset="0.6101" style="stop-color:#1C856E"/>
			<stop  offset="0.8494" style="stop-color:#1B9D65"/>
			<stop  offset="1" style="stop-color:#1AA562"/>
		</linearGradient>
		<polygon class="st7" points="31.3,63.9 -3.4,33.5 26.9,-1.1 61.6,29.3 		"/>
	</g>
	<g class="st0">
		<defs>
			<path id="SVGID_23_" d="M49.7,68.1l9.7,9.7l2.4,2.4c4.6,4.6,12,4.6,16.6,0c4.6-4.6,4.6-12,0-16.6l-12-12L49.7,68.1z"/>
		</defs>
		<clipPath id="SVGID_24_">
			<use xlink:href="#SVGID_23_"  style="overflow:visible;"/>
		</clipPath>
		
			<linearGradient id="SVGID_25_" gradientUnits="userSpaceOnUse" x1="-261.7358" y1="347.1192" x2="-260.9308" y2="347.1192" gradientTransform="matrix(-86.7206 -75.8428 -75.8428 86.7206 3722.8655 -49860.6719)">
			<stop  offset="0" style="stop-color:#034257"/>
			<stop  offset="0.3079" style="stop-color:#136667"/>
			<stop  offset="0.5534" style="stop-color:#1D7F71"/>
			<stop  offset="0.6101" style="stop-color:#1C856E"/>
			<stop  offset="0.8494" style="stop-color:#1B9D65"/>
			<stop  offset="1" style="stop-color:#1AA562"/>
		</linearGradient>
		<polygon class="st8" points="68.6,101.1 33.3,70.3 64.1,35 99.4,65.8 		"/>
	</g>
	<g class="st0">
		<defs>
			<path id="SVGID_26_" d="M36.1,81.7c0.3,6.1,5.4,11,11.7,11c6.2,0,11.3-4.9,11.7-11L47.7,70.1L36.1,81.7z"/>
		</defs>
		<clipPath id="SVGID_27_">
			<use xlink:href="#SVGID_26_"  style="overflow:visible;"/>
		</clipPath>
		
			<linearGradient id="SVGID_28_" gradientUnits="userSpaceOnUse" x1="-261.7358" y1="347.0546" x2="-260.9308" y2="347.0546" gradientTransform="matrix(-86.7206 -75.8428 -75.8428 86.7206 3703.2737 -49838.2695)">
			<stop  offset="0" style="stop-color:#034257"/>
			<stop  offset="0.3079" style="stop-color:#136667"/>
			<stop  offset="0.5534" style="stop-color:#1D7F71"/>
			<stop  offset="0.6101" style="stop-color:#1C856E"/>
			<stop  offset="0.8494" style="stop-color:#1B9D65"/>
			<stop  offset="1" style="stop-color:#1AA562"/>
		</linearGradient>
		<polygon class="st9" points="49.3,104.3 24.8,82.9 46.2,58.5 70.6,79.9 		"/>
	</g>
	<g class="st0">
		<defs>
			<path id="SVGID_29_" d="M36.1,17.2l11.6,11.6l11.7-11.7c-0.5-6-5.5-10.8-11.6-10.8C41.6,6.4,36.6,11.2,36.1,17.2"/>
		</defs>
		<clipPath id="SVGID_30_">
			<use xlink:href="#SVGID_29_"  style="overflow:visible;"/>
		</clipPath>
		
			<linearGradient id="SVGID_31_" gradientUnits="userSpaceOnUse" x1="-261.7358" y1="347.1866" x2="-260.9308" y2="347.1866" gradientTransform="matrix(-86.7206 -75.8428 -75.8428 86.7206 3744.9009 -49885.8672)">
			<stop  offset="0" style="stop-color:#034257"/>
			<stop  offset="0.3079" style="stop-color:#136667"/>
			<stop  offset="0.5534" style="stop-color:#1D7F71"/>
			<stop  offset="0.6101" style="stop-color:#1C856E"/>
			<stop  offset="0.8494" style="stop-color:#1B9D65"/>
			<stop  offset="1" style="stop-color:#1AA562"/>
		</linearGradient>
		<polygon class="st10" points="49.3,40.4 25,19.1 46.2,-5.1 70.5,16.1 		"/>
	</g>
	<g class="st0">
		<defs>
			<rect id="SVGID_32_" x="-261.8" y="-248.1" width="841.9" height="595.3"/>
		</defs>
		<clipPath id="SVGID_33_">
			<use xlink:href="#SVGID_32_"  style="overflow:visible;"/>
		</clipPath>
		<path class="st11" d="M249.5,65.1"/>
	</g>
	<g class="st0">
		<path class="st12" d="M119.5,76.9c2.7,0,4,2.1,4,4.5c0,2.3-1.3,4.5-4,4.5c-2.7,0-4-2.1-4-4.5C115.5,79,116.8,76.9,119.5,76.9z
			 M119.5,85.1c2.3,0,3.2-1.9,3.2-3.8c0-1.9-1-3.8-3.2-3.8c-2.3,0-3.2,1.9-3.2,3.8C116.3,83.2,117.2,85.1,119.5,85.1z"/>
		<path class="st12" d="M124.7,79.4h0.8v1.1h0c0.3-0.7,1.1-1.2,2-1.2c1.7,0,2.3,0.9,2.3,2.4v4h-0.8v-3.9c0-1.1-0.3-1.9-1.6-1.9
			c-1.2,0-1.9,0.9-1.9,2.1v3.6h-0.8V79.4z"/>
		<path class="st12" d="M131.6,82.7c0,1.1,0.6,2.4,2,2.4c1.1,0,1.7-0.6,1.9-1.6h0.8c-0.3,1.4-1.1,2.2-2.7,2.2c-2,0-2.8-1.5-2.8-3.3
			c0-1.6,0.8-3.3,2.8-3.3c2,0,2.8,1.7,2.7,3.5H131.6z M135.6,82.1c0-1.1-0.7-2.2-2-2.2c-1.2,0-1.9,1.1-2,2.2H135.6z"/>
		<path class="st12" d="M143.3,77h0.9l3.4,8.6h-0.9l-1-2.7h-3.9l-1,2.7h-0.9L143.3,77z M142,82.2h3.4l-1.7-4.4L142,82.2z"/>
		<path class="st12" d="M148.4,77h3.8c1.5,0,2.5,0.9,2.5,2.4c0,1.5-1,2.4-2.5,2.4h-3v3.7h-0.8V77z M149.2,81.2h2.8
			c1.1,0,1.9-0.6,1.9-1.8c0-1.2-0.8-1.8-1.9-1.8h-2.8V81.2z"/>
		<path class="st12" d="M156,77h0.8v8.6H156V77z"/>
		<path class="st12" d="M163,79.4h1.3V80H163v4.2c0,0.5,0.1,0.8,0.6,0.8c0.2,0,0.4,0,0.6,0v0.6c-0.2,0-0.4,0-0.7,0
			c-1,0-1.4-0.3-1.3-1.4V80h-1.1v-0.6h1.1v-1.9h0.8V79.4z"/>
		<path class="st12" d="M170.9,82.5c0,1.8-1,3.3-2.9,3.3c-1.9,0-2.9-1.5-2.9-3.3c0-1.8,1-3.3,2.9-3.3
			C169.9,79.2,170.9,80.7,170.9,82.5z M165.8,82.5c0,1.3,0.7,2.6,2.2,2.6s2.2-1.3,2.2-2.6s-0.7-2.6-2.2-2.6S165.8,81.2,165.8,82.5z"
			/>
		<path class="st12" d="M178,77h0.9l3.4,8.6h-0.9l-1-2.7h-3.9l-1,2.7h-0.9L178,77z M176.7,82.2h3.4l-1.7-4.4L176.7,82.2z"/>
		<path class="st12" d="M187.3,81.4c-0.2-0.9-0.8-1.5-1.8-1.5c-1.5,0-2.2,1.3-2.2,2.6s0.7,2.6,2.2,2.6c0.9,0,1.7-0.7,1.8-1.8h0.8
			c-0.2,1.5-1.2,2.4-2.6,2.4c-1.9,0-2.9-1.5-2.9-3.3c0-1.8,1-3.3,2.9-3.3c1.3,0,2.3,0.7,2.5,2.1H187.3z"/>
		<path class="st12" d="M193.5,81.4c-0.2-0.9-0.8-1.5-1.8-1.5c-1.5,0-2.2,1.3-2.2,2.6s0.7,2.6,2.2,2.6c0.9,0,1.7-0.7,1.8-1.8h0.8
			c-0.2,1.5-1.2,2.4-2.6,2.4c-1.9,0-2.9-1.5-2.9-3.3c0-1.8,1-3.3,2.9-3.3c1.3,0,2.3,0.7,2.5,2.1H193.5z"/>
		<path class="st12" d="M195.8,82.7c0,1.1,0.6,2.4,2,2.4c1.1,0,1.7-0.6,1.9-1.6h0.8c-0.3,1.4-1.1,2.2-2.7,2.2c-2,0-2.8-1.5-2.8-3.3
			c0-1.6,0.8-3.3,2.8-3.3c2,0,2.8,1.7,2.7,3.5H195.8z M199.8,82.1c0-1.1-0.7-2.2-2-2.2c-1.2,0-1.9,1.1-2,2.2H199.8z"/>
		<path class="st12" d="M205.3,81.2c0-0.9-0.8-1.4-1.6-1.4c-0.7,0-1.5,0.3-1.5,1.1c0,0.7,0.8,0.9,1.3,1l1,0.2
			c0.9,0.1,1.8,0.6,1.8,1.7c0,1.3-1.3,1.9-2.5,1.9c-1.4,0-2.4-0.7-2.5-2.2h0.8c0.1,1,0.8,1.5,1.8,1.5c0.7,0,1.7-0.3,1.7-1.2
			c0-0.7-0.7-1-1.4-1.1l-1-0.2c-1-0.3-1.7-0.6-1.7-1.7c0-1.3,1.2-1.7,2.3-1.7c1.2,0,2.2,0.6,2.3,2H205.3z"/>
		<path class="st12" d="M211.1,81.2c0-0.9-0.8-1.4-1.6-1.4c-0.7,0-1.5,0.3-1.5,1.1c0,0.7,0.8,0.9,1.3,1l1,0.2
			c0.9,0.1,1.8,0.6,1.8,1.7c0,1.3-1.3,1.9-2.5,1.9c-1.4,0-2.4-0.7-2.5-2.2h0.8c0.1,1,0.8,1.5,1.8,1.5c0.7,0,1.7-0.3,1.7-1.2
			c0-0.7-0.7-1-1.4-1.1l-1-0.2c-1-0.3-1.7-0.6-1.7-1.7c0-1.3,1.2-1.7,2.3-1.7c1.2,0,2.2,0.6,2.3,2H211.1z"/>
		<path class="st12" d="M219.1,77h0.9l3.4,8.6h-0.9l-1-2.7h-3.9l-1,2.7h-0.9L219.1,77z M217.8,82.2h3.4l-1.7-4.4L217.8,82.2z"/>
		<path class="st12" d="M224.1,77h0.8v8.6h-0.8V77z"/>
		<path class="st12" d="M226.3,77h0.8v8.6h-0.8V77z"/>
		<path class="st12" d="M232,77h3.6c1.4,0,2.7,0.5,2.7,2.1c0,0.9-0.6,1.7-1.5,1.9v0c1.1,0.1,1.8,1,1.8,2.1c0,0.8-0.3,2.4-3.1,2.4
			H232V77z M232.8,80.8h2.8c1.3,0,1.9-0.6,1.9-1.5c0-1.1-0.7-1.6-1.9-1.6h-2.8V80.8z M232.8,84.9h2.8c1.2,0,2.3-0.4,2.3-1.8
			c0-1.1-0.8-1.7-2.3-1.7h-2.8V84.9z"/>
		<path class="st12" d="M239.8,81.3c0.1-1.5,1.1-2.1,2.5-2.1c1.1,0,2.3,0.3,2.3,2v3.3c0,0.3,0.1,0.5,0.4,0.5c0.1,0,0.2,0,0.2,0v0.6
			c-0.2,0-0.3,0-0.5,0c-0.8,0-0.9-0.4-0.9-1.1h0c-0.5,0.8-1.1,1.3-2.3,1.3c-1.1,0-2.1-0.6-2.1-1.8c0-1.7,1.7-1.8,3.3-2
			c0.6-0.1,1-0.2,1-0.8c0-1-0.7-1.3-1.6-1.3c-0.9,0-1.6,0.4-1.7,1.4H239.8z M243.8,82.2L243.8,82.2c-0.1,0.2-0.5,0.2-0.7,0.3
			c-1.3,0.2-2.9,0.2-2.9,1.4c0,0.8,0.7,1.2,1.4,1.2c1.2,0,2.2-0.7,2.2-1.9V82.2z"/>
		<path class="st12" d="M246,79.4h0.8v1.1h0c0.3-0.7,1.1-1.2,2-1.2c1.7,0,2.3,0.9,2.3,2.4v4h-0.8v-3.9c0-1.1-0.3-1.9-1.6-1.9
			c-1.2,0-1.9,0.9-1.9,2.1v3.6H246V79.4z"/>
		<path class="st12" d="M252.5,77h0.8v5.4l3.4-3h1l-2.6,2.3l2.8,3.9h-0.9l-2.4-3.4l-1.2,1v2.4h-0.8V77z"/>
		<path class="st12" d="M262.2,81.2c0-0.9-0.8-1.4-1.6-1.4c-0.7,0-1.5,0.3-1.5,1.1c0,0.7,0.8,0.9,1.3,1l1,0.2
			c0.9,0.1,1.8,0.6,1.8,1.7c0,1.3-1.3,1.9-2.5,1.9c-1.4,0-2.4-0.7-2.5-2.2h0.8c0.1,1,0.8,1.5,1.8,1.5c0.7,0,1.7-0.3,1.7-1.2
			c0-0.7-0.7-1-1.4-1.1l-1-0.2c-1-0.3-1.7-0.6-1.7-1.7c0-1.3,1.2-1.7,2.3-1.7c1.2,0,2.2,0.6,2.3,2H262.2z"/>
	</g>
</g>
<g>
	<path class="st12" d="M114.8,28.3c3.1,0,5.8,1,8,3.1c2.2,2.1,3.4,4.6,3.4,7.5c0,2.9-1.1,5.3-3.2,7.4c-2.1,2-4.7,3.1-7.8,3.2h0h0
		h-0.1c-0.2,0-0.3,0-0.3,0l-0.2,0h-7.4v12.2c0,0.8-0.3,1.5-0.9,2.1c-0.6,0.6-1.3,0.9-2.1,0.9c-0.8,0-1.5-0.3-2.1-0.9
		c-0.6-0.6-0.9-1.3-0.9-2.1V31.3c0-0.8,0.3-1.5,0.9-2.1c0.6-0.6,1.3-0.9,2.1-0.9H114.8z M114.9,43.6c1.4,0,2.7-0.5,3.7-1.4
		c1-0.9,1.5-2,1.5-3.2c0-1.3-0.5-2.4-1.6-3.3c-1-0.9-2.3-1.4-3.8-1.4h-7.6v9.3H114.9z"/>
	<path class="st12" d="M135.5,28.4c0.8,0,1.5,0.3,2.1,0.9c0.6,0.6,0.9,1.3,0.9,2.1v27.4h13.4c0.8,0,1.5,0.3,2.1,0.9
		c0.6,0.6,0.9,1.3,0.9,2.1s-0.3,1.5-0.9,2.1c-0.6,0.6-1.3,0.9-2.1,0.9h-16.4c-0.8,0-1.5-0.3-2.1-0.9c-0.6-0.6-0.9-1.3-0.9-2.1V31.4
		c0-0.8,0.3-1.5,0.9-2.1C133.9,28.7,134.6,28.4,135.5,28.4z"/>
	<path class="st12" d="M181.1,58.8c0.8,0,1.5,0.3,2.1,0.9c0.6,0.6,0.9,1.3,0.9,2.1s-0.3,1.5-0.9,2.1c-0.6,0.6-1.3,0.9-2.1,0.9h-18.4
		c-0.8,0-1.5-0.3-2.1-0.9c-0.6-0.6-0.9-1.3-0.9-2.1V31.4c0-0.8,0.3-1.6,0.9-2.1c0.6-0.6,1.3-0.9,2.1-0.9h0l18.4,0.1
		c0.8,0,1.5,0.3,2.1,0.9c0.6,0.6,0.9,1.3,0.9,2.1c0,0.8-0.3,1.5-0.9,2.1c-0.6,0.6-1.3,0.9-2.1,0.9h0l-15.3-0.1v9.2h11.1
		c0.8,0,1.5,0.3,2.1,0.9c0.6,0.6,0.9,1.3,0.9,2.1c0,0.8-0.3,1.5-0.9,2.1c-0.6,0.6-1.3,0.9-2.1,0.9h-11.1v9.2H181.1z"/>
	<path class="st12" d="M214,29c0.7,0.5,1.1,1.1,1.2,2s0,1.6-0.5,2.2l-9.5,13.4l9.5,13.4c0.5,0.7,0.6,1.4,0.5,2.2s-0.5,1.5-1.2,1.9
		c-0.5,0.4-1.1,0.6-1.7,0.6c-1,0-1.8-0.4-2.4-1.3l-8.3-11.7l-8.3,11.7c-0.6,0.8-1.4,1.3-2.4,1.3c-0.6,0-1.2-0.2-1.7-0.6
		c-0.7-0.5-1.1-1.1-1.2-1.9s0-1.6,0.5-2.2l9.5-13.4l-9.5-13.4c-0.5-0.7-0.6-1.4-0.5-2.2s0.5-1.5,1.2-2c0.7-0.5,1.4-0.6,2.2-0.5
		c0.8,0.2,1.5,0.6,1.9,1.2l8.3,11.7l8.3-11.7c0.5-0.7,1.1-1.1,1.9-1.2C212.6,28.4,213.3,28.6,214,29z"/>
	<path class="st12" d="M244.2,28.4c0.8,0,1.5,0.3,2.1,0.9c0.6,0.6,0.9,1.3,0.9,2.1v20.5c0,3.6-1.3,6.7-3.8,9.2s-5.6,3.8-9.2,3.8
		c-3.6,0-6.7-1.3-9.2-3.8s-3.8-5.6-3.8-9.2V31.3c0-0.8,0.3-1.5,0.9-2.1c0.6-0.6,1.3-0.9,2.1-0.9s1.5,0.3,2.1,0.9
		c0.6,0.6,0.9,1.3,0.9,2.1v20.5c0,2,0.7,3.6,2.1,5s3.1,2.1,5,2.1c1.9,0,3.6-0.7,5-2.1s2.1-3.1,2.1-5V31.3c0-0.8,0.3-1.5,0.9-2.1
		C242.7,28.7,243.4,28.4,244.2,28.4z"/>
	<path class="st12" d="M278.2,54c-0.1,3-1.3,5.6-3.6,7.7c-2.3,2.1-5,3.1-8.2,3.1c-2.8,0-5.2-0.6-7.4-1.8c-2.6-1.4-4.3-3.5-5-6.2
		c-0.2-0.8-0.1-1.5,0.3-2.3c0.4-0.7,1-1.2,1.8-1.4c0.8-0.2,1.5-0.1,2.3,0.3c0.7,0.4,1.2,1,1.4,1.8c0.3,1.1,1.1,2,2.5,2.7
		c1.2,0.6,2.6,0.8,4.2,0.8c1.6,0,3-0.5,4.1-1.5c1.2-1,1.8-2.2,1.8-3.7c0-0.9-0.3-1.7-0.9-2.4c-1-1.1-2.8-1.7-5.3-1.7h0
		c-0.1,0-0.1,0-0.1,0c0,0,0,0-0.1,0c-4.1-0.1-7.3-1.3-9.5-3.6c-1.8-1.9-2.7-4.2-2.5-6.7c0.1-3,1.3-5.6,3.6-7.7
		c2.3-2.1,5-3.1,8.2-3.1c2.8,0,5.2,0.6,7.4,1.8c2.6,1.4,4.3,3.5,5,6.2c0.2,0.8,0.1,1.5-0.3,2.3c-0.4,0.7-1,1.2-1.8,1.4
		s-1.5,0.1-2.3-0.3c-0.7-0.4-1.2-1-1.4-1.8c-0.3-1.1-1.1-2-2.5-2.7c-1.2-0.6-2.6-0.8-4.1-0.8c-1.6,0-3,0.5-4.1,1.5
		c-1.1,1-1.7,2.2-1.8,3.7c0,0.9,0.3,1.7,0.9,2.4c1,1.1,2.8,1.7,5.3,1.7h0.1c4.1,0.1,7.3,1.3,9.5,3.6C277.5,49.2,278.4,51.4,278.2,54
		z"/>
</g>
</svg>
